<mxfile host="app.diagrams.net" modified="2023-10-01T21:36:01.513Z" agent="Mozilla/5.0 (Macintosh; Intel Mac OS X 10_15_7) AppleWebKit/537.36 (KHTML, like Gecko) Chrome/116.0.0.0 Safari/537.36" etag="Fe1h6q_LIr1EJ5QLOzFH" version="21.6.1" type="google">
  <diagram name="Page-1" id="AGiO3ol5ohwqfE_UyvIH">
    <mxGraphModel grid="1" page="1" gridSize="10" guides="1" tooltips="1" connect="1" arrows="1" fold="1" pageScale="1" pageWidth="850" pageHeight="1100" math="0" shadow="0">
      <root>
        <mxCell id="0" />
        <mxCell id="1" parent="0" />
        <mxCell id="WrBATwZzKK5_DxGyc8Bm-41" style="edgeStyle=orthogonalEdgeStyle;rounded=0;orthogonalLoop=1;jettySize=auto;html=1;entryX=0.5;entryY=0;entryDx=0;entryDy=0;endArrow=none;endFill=0;dashed=1;" edge="1" parent="1" source="WrBATwZzKK5_DxGyc8Bm-2">
          <mxGeometry relative="1" as="geometry">
            <mxPoint x="188.5" y="590" as="targetPoint" />
            <Array as="points">
              <mxPoint x="189" y="565" />
            </Array>
          </mxGeometry>
        </mxCell>
        <mxCell id="WrBATwZzKK5_DxGyc8Bm-2" value="BILLING SOLUTION" style="rounded=0;whiteSpace=wrap;html=1;fillColor=#66B2FF;movable=1;resizable=1;rotatable=1;deletable=1;editable=1;locked=0;connectable=1;" vertex="1" parent="1">
          <mxGeometry x="118.5" y="470" width="141" height="70" as="geometry" />
        </mxCell>
        <mxCell id="WrBATwZzKK5_DxGyc8Bm-4" value="" style="group;movable=1;resizable=1;rotatable=1;deletable=1;editable=1;locked=0;connectable=1;" connectable="0" vertex="1" parent="1">
          <mxGeometry x="150" y="100" width="78" height="120" as="geometry" />
        </mxCell>
        <mxCell id="WrBATwZzKK5_DxGyc8Bm-63" value="" style="group" connectable="0" vertex="1" parent="WrBATwZzKK5_DxGyc8Bm-4">
          <mxGeometry width="78" height="120" as="geometry" />
        </mxCell>
        <mxCell id="WrBATwZzKK5_DxGyc8Bm-1" value="" style="sketch=0;points=[[0,0,0],[0.25,0,0],[0.5,0,0],[0.75,0,0],[1,0,0],[0,1,0],[0.25,1,0],[0.5,1,0],[0.75,1,0],[1,1,0],[0,0.25,0],[0,0.5,0],[0,0.75,0],[1,0.25,0],[1,0.5,0],[1,0.75,0]];outlineConnect=0;fontColor=#232F3E;gradientColor=#009900;gradientDirection=north;fillColor=#00994D;strokeColor=#ffffff;dashed=0;verticalLabelPosition=bottom;verticalAlign=top;align=center;html=1;fontSize=12;fontStyle=0;aspect=fixed;shape=mxgraph.aws4.resourceIcon;resIcon=mxgraph.aws4.business_application;" vertex="1" parent="WrBATwZzKK5_DxGyc8Bm-63">
          <mxGeometry width="78" height="78" as="geometry" />
        </mxCell>
        <mxCell id="WrBATwZzKK5_DxGyc8Bm-3" value="Business" style="text;html=1;strokeColor=none;fillColor=none;align=center;verticalAlign=middle;whiteSpace=wrap;rounded=0;" vertex="1" parent="WrBATwZzKK5_DxGyc8Bm-63">
          <mxGeometry x="9" y="90" width="60" height="30" as="geometry" />
        </mxCell>
        <object label="" placeholders="1" id="WrBATwZzKK5_DxGyc8Bm-12">
          <mxCell style="edgeStyle=orthogonalEdgeStyle;rounded=0;orthogonalLoop=1;jettySize=auto;html=1;dashed=1;" edge="1" parent="1" target="WrBATwZzKK5_DxGyc8Bm-2">
            <mxGeometry relative="1" as="geometry">
              <mxPoint x="189" y="370" as="sourcePoint" />
            </mxGeometry>
          </mxCell>
        </object>
        <mxCell id="WrBATwZzKK5_DxGyc8Bm-20" value="Manages customers&lt;br&gt;billings using" style="text;html=1;strokeColor=none;fillColor=none;align=center;verticalAlign=middle;whiteSpace=wrap;rounded=0;" vertex="1" parent="1">
          <mxGeometry x="118.5" y="280" width="140" height="90" as="geometry" />
        </mxCell>
        <mxCell id="WrBATwZzKK5_DxGyc8Bm-30" style="edgeStyle=orthogonalEdgeStyle;rounded=0;orthogonalLoop=1;jettySize=auto;html=1;entryX=1;entryY=0.5;entryDx=0;entryDy=0;entryPerimeter=0;exitX=0.5;exitY=0;exitDx=0;exitDy=0;dashed=1;movable=0;resizable=0;rotatable=0;deletable=0;editable=0;locked=1;connectable=0;" edge="1" parent="1" source="WrBATwZzKK5_DxGyc8Bm-21" target="WrBATwZzKK5_DxGyc8Bm-1">
          <mxGeometry relative="1" as="geometry">
            <mxPoint x="250" y="140" as="targetPoint" />
            <mxPoint x="518.5" y="200" as="sourcePoint" />
            <Array as="points">
              <mxPoint x="480" y="139" />
            </Array>
          </mxGeometry>
        </mxCell>
        <mxCell id="WrBATwZzKK5_DxGyc8Bm-21" value="Makes payment to" style="text;html=1;strokeColor=none;fillColor=none;align=center;verticalAlign=middle;whiteSpace=wrap;rounded=0;movable=0;resizable=0;rotatable=0;deletable=0;editable=0;locked=1;connectable=0;" vertex="1" parent="1">
          <mxGeometry x="410" y="200" width="140" height="70" as="geometry" />
        </mxCell>
        <mxCell id="WrBATwZzKK5_DxGyc8Bm-22" style="edgeStyle=orthogonalEdgeStyle;rounded=0;orthogonalLoop=1;jettySize=auto;html=1;entryX=0.5;entryY=0;entryDx=0;entryDy=0;dashed=1;endArrow=none;endFill=0;" edge="1" parent="1" source="WrBATwZzKK5_DxGyc8Bm-3" target="WrBATwZzKK5_DxGyc8Bm-20">
          <mxGeometry relative="1" as="geometry" />
        </mxCell>
        <mxCell id="WrBATwZzKK5_DxGyc8Bm-26" value="" style="edgeStyle=orthogonalEdgeStyle;rounded=0;orthogonalLoop=1;jettySize=auto;html=1;dashed=1;" edge="1" parent="1" source="WrBATwZzKK5_DxGyc8Bm-24">
          <mxGeometry relative="1" as="geometry">
            <mxPoint x="480" y="470" as="targetPoint" />
          </mxGeometry>
        </mxCell>
        <mxCell id="WrBATwZzKK5_DxGyc8Bm-38" value="" style="swimlane;startSize=0;movable=1;resizable=1;rotatable=1;deletable=1;editable=1;locked=0;connectable=1;" vertex="1" parent="1">
          <mxGeometry x="-10" y="10" width="620" height="810" as="geometry" />
        </mxCell>
        <mxCell id="WrBATwZzKK5_DxGyc8Bm-47" value="Context" style="text;strokeColor=none;fillColor=none;html=1;fontSize=24;fontStyle=1;verticalAlign=middle;align=center;movable=1;resizable=1;rotatable=1;deletable=1;editable=1;locked=0;connectable=1;" vertex="1" parent="WrBATwZzKK5_DxGyc8Bm-38">
          <mxGeometry width="100" height="40" as="geometry" />
        </mxCell>
        <mxCell id="WrBATwZzKK5_DxGyc8Bm-51" value="" style="group;movable=1;resizable=1;rotatable=1;deletable=1;editable=1;locked=0;connectable=1;" connectable="0" vertex="1" parent="WrBATwZzKK5_DxGyc8Bm-38">
          <mxGeometry x="460" y="370" width="60" height="80" as="geometry" />
        </mxCell>
        <mxCell id="WrBATwZzKK5_DxGyc8Bm-49" value="" style="html=1;verticalLabelPosition=bottom;align=center;labelBackgroundColor=#ffffff;verticalAlign=top;strokeWidth=2;strokeColor=#00994D;shadow=0;dashed=0;shape=mxgraph.ios7.icons.user;" vertex="1" parent="WrBATwZzKK5_DxGyc8Bm-51">
          <mxGeometry width="60" height="50" as="geometry" />
        </mxCell>
        <mxCell id="WrBATwZzKK5_DxGyc8Bm-50" value="User" style="text;html=1;strokeColor=none;fillColor=none;align=center;verticalAlign=middle;whiteSpace=wrap;rounded=0;container=1;" vertex="1" parent="WrBATwZzKK5_DxGyc8Bm-51">
          <mxGeometry y="50" width="60" height="30" as="geometry" />
        </mxCell>
        <mxCell id="WrBATwZzKK5_DxGyc8Bm-62" style="edgeStyle=orthogonalEdgeStyle;rounded=0;orthogonalLoop=1;jettySize=auto;html=1;entryX=0.5;entryY=1;entryDx=0;entryDy=0;dashed=1;" edge="1" parent="WrBATwZzKK5_DxGyc8Bm-38" source="WrBATwZzKK5_DxGyc8Bm-34" target="WrBATwZzKK5_DxGyc8Bm-24">
          <mxGeometry relative="1" as="geometry" />
        </mxCell>
        <mxCell id="WrBATwZzKK5_DxGyc8Bm-34" value="EMAIL SYSTEM" style="rounded=0;whiteSpace=wrap;html=1;fillColor=#666666;movable=1;resizable=1;rotatable=1;deletable=1;editable=1;locked=0;connectable=1;" vertex="1" parent="WrBATwZzKK5_DxGyc8Bm-38">
          <mxGeometry x="130" y="670" width="141" height="80" as="geometry" />
        </mxCell>
        <mxCell id="WrBATwZzKK5_DxGyc8Bm-24" value="Sends email to" style="text;html=1;strokeColor=none;fillColor=none;align=center;verticalAlign=middle;whiteSpace=wrap;rounded=0;" vertex="1" parent="WrBATwZzKK5_DxGyc8Bm-38">
          <mxGeometry x="435" y="500" width="110" height="60" as="geometry" />
        </mxCell>
        <mxCell id="WrBATwZzKK5_DxGyc8Bm-36" style="edgeStyle=orthogonalEdgeStyle;rounded=0;orthogonalLoop=1;jettySize=auto;html=1;entryX=0.5;entryY=1;entryDx=0;entryDy=0;endArrow=none;endFill=0;dashed=1;" edge="1" parent="WrBATwZzKK5_DxGyc8Bm-38" source="WrBATwZzKK5_DxGyc8Bm-38" target="WrBATwZzKK5_DxGyc8Bm-24">
          <mxGeometry relative="1" as="geometry">
            <mxPoint x="490" y="610" as="targetPoint" />
            <Array as="points">
              <mxPoint x="490" y="670" />
              <mxPoint x="490" y="670" />
            </Array>
          </mxGeometry>
        </mxCell>
        <mxCell id="WrBATwZzKK5_DxGyc8Bm-61" style="edgeStyle=orthogonalEdgeStyle;rounded=0;orthogonalLoop=1;jettySize=auto;html=1;dashed=1;" edge="1" parent="WrBATwZzKK5_DxGyc8Bm-38" source="WrBATwZzKK5_DxGyc8Bm-59" target="WrBATwZzKK5_DxGyc8Bm-34">
          <mxGeometry relative="1" as="geometry" />
        </mxCell>
        <mxCell id="WrBATwZzKK5_DxGyc8Bm-59" value="Sends email using&amp;nbsp;" style="text;html=1;strokeColor=none;fillColor=none;align=center;verticalAlign=middle;whiteSpace=wrap;rounded=0;movable=1;resizable=1;rotatable=1;deletable=1;editable=1;locked=0;connectable=1;" vertex="1" parent="WrBATwZzKK5_DxGyc8Bm-38">
          <mxGeometry x="145.5" y="580" width="110" height="50" as="geometry" />
        </mxCell>
        <mxCell id="WrBATwZzKK5_DxGyc8Bm-53" style="edgeStyle=orthogonalEdgeStyle;rounded=0;orthogonalLoop=1;jettySize=auto;html=1;endArrow=none;endFill=0;dashed=1;movable=1;resizable=1;rotatable=1;deletable=1;editable=1;locked=0;connectable=1;" edge="1" parent="1" source="WrBATwZzKK5_DxGyc8Bm-49" target="WrBATwZzKK5_DxGyc8Bm-21">
          <mxGeometry relative="1" as="geometry" />
        </mxCell>
        <mxCell id="WrBATwZzKK5_DxGyc8Bm-74" value="" style="swimlane;startSize=0;strokeColor=#000000;" vertex="1" parent="1">
          <mxGeometry x="1210" y="20" width="1250" height="890" as="geometry" />
        </mxCell>
        <mxCell id="WrBATwZzKK5_DxGyc8Bm-87" style="edgeStyle=orthogonalEdgeStyle;rounded=0;orthogonalLoop=1;jettySize=auto;html=1;entryX=1;entryY=0.5;entryDx=0;entryDy=0;dashed=1;" edge="1" parent="WrBATwZzKK5_DxGyc8Bm-74" source="WrBATwZzKK5_DxGyc8Bm-72" target="WrBATwZzKK5_DxGyc8Bm-81">
          <mxGeometry relative="1" as="geometry" />
        </mxCell>
        <mxCell id="WrBATwZzKK5_DxGyc8Bm-91" style="edgeStyle=orthogonalEdgeStyle;rounded=0;orthogonalLoop=1;jettySize=auto;html=1;entryX=0.5;entryY=0;entryDx=0;entryDy=0;dashed=1;" edge="1" parent="WrBATwZzKK5_DxGyc8Bm-74" source="WrBATwZzKK5_DxGyc8Bm-72" target="WrBATwZzKK5_DxGyc8Bm-82">
          <mxGeometry relative="1" as="geometry" />
        </mxCell>
        <mxCell id="WrBATwZzKK5_DxGyc8Bm-92" style="edgeStyle=orthogonalEdgeStyle;rounded=0;orthogonalLoop=1;jettySize=auto;html=1;dashed=1;" edge="1" parent="WrBATwZzKK5_DxGyc8Bm-74" source="WrBATwZzKK5_DxGyc8Bm-72" target="WrBATwZzKK5_DxGyc8Bm-98">
          <mxGeometry relative="1" as="geometry">
            <mxPoint x="555.25" y="750" as="targetPoint" />
          </mxGeometry>
        </mxCell>
        <mxCell id="WrBATwZzKK5_DxGyc8Bm-93" style="edgeStyle=orthogonalEdgeStyle;rounded=0;orthogonalLoop=1;jettySize=auto;html=1;entryX=0.998;entryY=0.629;entryDx=0;entryDy=0;entryPerimeter=0;dashed=1;" edge="1" parent="WrBATwZzKK5_DxGyc8Bm-74" source="WrBATwZzKK5_DxGyc8Bm-72" target="WrBATwZzKK5_DxGyc8Bm-79">
          <mxGeometry relative="1" as="geometry" />
        </mxCell>
        <mxCell id="WrBATwZzKK5_DxGyc8Bm-94" style="edgeStyle=orthogonalEdgeStyle;rounded=0;orthogonalLoop=1;jettySize=auto;html=1;entryX=0;entryY=0.5;entryDx=0;entryDy=0;dashed=1;" edge="1" parent="WrBATwZzKK5_DxGyc8Bm-74" source="WrBATwZzKK5_DxGyc8Bm-72" target="WrBATwZzKK5_DxGyc8Bm-73">
          <mxGeometry relative="1" as="geometry" />
        </mxCell>
        <mxCell id="WrBATwZzKK5_DxGyc8Bm-72" value="Billing Solution API&lt;br&gt;(python (FastApi))&lt;br&gt;&lt;br&gt;provides CRUD access" style="rounded=0;whiteSpace=wrap;html=1;fillColor=#66B2FF;movable=1;resizable=1;rotatable=1;deletable=1;editable=1;locked=0;connectable=1;" vertex="1" parent="WrBATwZzKK5_DxGyc8Bm-74">
          <mxGeometry x="563.25" y="450" width="135.5" height="70" as="geometry" />
        </mxCell>
        <mxCell id="WrBATwZzKK5_DxGyc8Bm-78" value="User Client&lt;br&gt;(mobile/web)" style="rounded=0;whiteSpace=wrap;html=1;fillColor=#66B2FF;movable=1;resizable=1;rotatable=1;deletable=1;editable=1;locked=0;connectable=1;" vertex="1" parent="WrBATwZzKK5_DxGyc8Bm-74">
          <mxGeometry x="220" y="208" width="141" height="70" as="geometry" />
        </mxCell>
        <mxCell id="WrBATwZzKK5_DxGyc8Bm-95" style="edgeStyle=orthogonalEdgeStyle;rounded=0;orthogonalLoop=1;jettySize=auto;html=1;dashed=1;" edge="1" parent="WrBATwZzKK5_DxGyc8Bm-74" source="WrBATwZzKK5_DxGyc8Bm-73" target="WrBATwZzKK5_DxGyc8Bm-71">
          <mxGeometry relative="1" as="geometry" />
        </mxCell>
        <mxCell id="WrBATwZzKK5_DxGyc8Bm-73" value="EMAIL SYSTEM" style="rounded=0;whiteSpace=wrap;html=1;fillColor=#666666;movable=1;resizable=1;rotatable=1;deletable=1;editable=1;locked=0;connectable=1;" vertex="1" parent="WrBATwZzKK5_DxGyc8Bm-74">
          <mxGeometry x="1015" y="445" width="141" height="80" as="geometry" />
        </mxCell>
        <mxCell id="WrBATwZzKK5_DxGyc8Bm-86" style="edgeStyle=orthogonalEdgeStyle;rounded=0;orthogonalLoop=1;jettySize=auto;html=1;dashed=1;" edge="1" parent="WrBATwZzKK5_DxGyc8Bm-74" source="WrBATwZzKK5_DxGyc8Bm-65" target="WrBATwZzKK5_DxGyc8Bm-72">
          <mxGeometry relative="1" as="geometry" />
        </mxCell>
        <mxCell id="WrBATwZzKK5_DxGyc8Bm-65" value="" style="group;movable=1;resizable=1;rotatable=1;deletable=1;editable=1;locked=0;connectable=1;" connectable="0" vertex="1" parent="WrBATwZzKK5_DxGyc8Bm-74">
          <mxGeometry x="592" y="204" width="78" height="120" as="geometry" />
        </mxCell>
        <mxCell id="WrBATwZzKK5_DxGyc8Bm-66" value="" style="group" connectable="0" vertex="1" parent="WrBATwZzKK5_DxGyc8Bm-65">
          <mxGeometry width="78" height="120" as="geometry" />
        </mxCell>
        <mxCell id="WrBATwZzKK5_DxGyc8Bm-67" value="" style="sketch=0;points=[[0,0,0],[0.25,0,0],[0.5,0,0],[0.75,0,0],[1,0,0],[0,1,0],[0.25,1,0],[0.5,1,0],[0.75,1,0],[1,1,0],[0,0.25,0],[0,0.5,0],[0,0.75,0],[1,0.25,0],[1,0.5,0],[1,0.75,0]];outlineConnect=0;fontColor=#232F3E;gradientColor=#009900;gradientDirection=north;fillColor=#00994D;strokeColor=#ffffff;dashed=0;verticalLabelPosition=bottom;verticalAlign=top;align=center;html=1;fontSize=12;fontStyle=0;aspect=fixed;shape=mxgraph.aws4.resourceIcon;resIcon=mxgraph.aws4.business_application;" vertex="1" parent="WrBATwZzKK5_DxGyc8Bm-66">
          <mxGeometry width="78" height="78" as="geometry" />
        </mxCell>
        <mxCell id="WrBATwZzKK5_DxGyc8Bm-68" value="Business" style="text;html=1;strokeColor=none;fillColor=none;align=center;verticalAlign=middle;whiteSpace=wrap;rounded=0;" vertex="1" parent="WrBATwZzKK5_DxGyc8Bm-66">
          <mxGeometry x="9" y="90" width="60" height="30" as="geometry" />
        </mxCell>
        <mxCell id="WrBATwZzKK5_DxGyc8Bm-79" value="DATABASE&amp;nbsp;&lt;br&gt;(postgres)" style="rounded=0;whiteSpace=wrap;html=1;fillColor=#004C99;movable=1;resizable=1;rotatable=1;deletable=1;editable=1;locked=0;connectable=1;" vertex="1" parent="WrBATwZzKK5_DxGyc8Bm-74">
          <mxGeometry x="230" y="750" width="141" height="70" as="geometry" />
        </mxCell>
        <mxCell id="WrBATwZzKK5_DxGyc8Bm-81" value="CACHE" style="rounded=0;whiteSpace=wrap;html=1;fillColor=#004C99;movable=1;resizable=1;rotatable=1;deletable=1;editable=1;locked=0;connectable=1;" vertex="1" parent="WrBATwZzKK5_DxGyc8Bm-74">
          <mxGeometry x="220" y="450" width="141" height="70" as="geometry" />
        </mxCell>
        <mxCell id="WrBATwZzKK5_DxGyc8Bm-82" value="CDN" style="rounded=0;whiteSpace=wrap;html=1;fillColor=#003366;movable=1;resizable=1;rotatable=1;deletable=1;editable=1;locked=0;connectable=1;" vertex="1" parent="WrBATwZzKK5_DxGyc8Bm-74">
          <mxGeometry x="670" y="620" width="141" height="70" as="geometry" />
        </mxCell>
        <mxCell id="WrBATwZzKK5_DxGyc8Bm-85" style="edgeStyle=orthogonalEdgeStyle;rounded=0;orthogonalLoop=1;jettySize=auto;html=1;dashed=1;" edge="1" parent="WrBATwZzKK5_DxGyc8Bm-74" source="WrBATwZzKK5_DxGyc8Bm-67" target="WrBATwZzKK5_DxGyc8Bm-78">
          <mxGeometry relative="1" as="geometry" />
        </mxCell>
        <mxCell id="WrBATwZzKK5_DxGyc8Bm-83" value="" style="group" connectable="0" vertex="1" parent="WrBATwZzKK5_DxGyc8Bm-74">
          <mxGeometry x="1052.75" y="212.5" width="65.5" height="95" as="geometry" />
        </mxCell>
        <mxCell id="WrBATwZzKK5_DxGyc8Bm-70" value="" style="html=1;verticalLabelPosition=bottom;align=center;labelBackgroundColor=#ffffff;verticalAlign=top;strokeWidth=2;strokeColor=#00994D;shadow=0;dashed=0;shape=mxgraph.ios7.icons.user;" vertex="1" parent="WrBATwZzKK5_DxGyc8Bm-83">
          <mxGeometry width="65.5" height="60" as="geometry" />
        </mxCell>
        <mxCell id="WrBATwZzKK5_DxGyc8Bm-71" value="User" style="text;html=1;strokeColor=none;fillColor=none;align=center;verticalAlign=middle;whiteSpace=wrap;rounded=0;container=1;" vertex="1" parent="WrBATwZzKK5_DxGyc8Bm-83">
          <mxGeometry y="65" width="65.5" height="30" as="geometry" />
        </mxCell>
        <mxCell id="WrBATwZzKK5_DxGyc8Bm-96" style="edgeStyle=orthogonalEdgeStyle;rounded=0;orthogonalLoop=1;jettySize=auto;html=1;entryX=1;entryY=0.5;entryDx=0;entryDy=0;entryPerimeter=0;dashed=1;" edge="1" parent="WrBATwZzKK5_DxGyc8Bm-74" source="WrBATwZzKK5_DxGyc8Bm-70" target="WrBATwZzKK5_DxGyc8Bm-67">
          <mxGeometry relative="1" as="geometry" />
        </mxCell>
        <mxCell id="WrBATwZzKK5_DxGyc8Bm-97" value="Container" style="text;strokeColor=none;fillColor=none;html=1;fontSize=24;fontStyle=1;verticalAlign=middle;align=center;movable=1;resizable=1;rotatable=1;deletable=1;editable=1;locked=0;connectable=1;" vertex="1" parent="WrBATwZzKK5_DxGyc8Bm-74">
          <mxGeometry x="10" y="10" width="100" height="40" as="geometry" />
        </mxCell>
        <mxCell id="WrBATwZzKK5_DxGyc8Bm-98" value="S3 BUCKET" style="rounded=0;whiteSpace=wrap;html=1;fillColor=#003366;movable=1;resizable=1;rotatable=1;deletable=1;editable=1;locked=0;connectable=1;" vertex="1" parent="WrBATwZzKK5_DxGyc8Bm-74">
          <mxGeometry x="510" y="750" width="141" height="70" as="geometry" />
        </mxCell>
        <mxCell id="WrBATwZzKK5_DxGyc8Bm-99" value="Makes&amp;nbsp; Request Using" style="text;html=1;strokeColor=none;fillColor=none;align=center;verticalAlign=middle;whiteSpace=wrap;rounded=0;" vertex="1" parent="WrBATwZzKK5_DxGyc8Bm-74">
          <mxGeometry x="460" y="260" width="60" height="30" as="geometry" />
        </mxCell>
        <mxCell id="WrBATwZzKK5_DxGyc8Bm-101" value="" style="endArrow=classic;html=1;rounded=0;exitX=0.42;exitY=1.005;exitDx=0;exitDy=0;exitPerimeter=0;entryX=0.5;entryY=0;entryDx=0;entryDy=0;dashed=1;" edge="1" parent="WrBATwZzKK5_DxGyc8Bm-74" source="WrBATwZzKK5_DxGyc8Bm-78" target="WrBATwZzKK5_DxGyc8Bm-72">
          <mxGeometry width="50" height="50" relative="1" as="geometry">
            <mxPoint x="550" y="500" as="sourcePoint" />
            <mxPoint x="600" y="450" as="targetPoint" />
          </mxGeometry>
        </mxCell>
        <mxCell id="WrBATwZzKK5_DxGyc8Bm-107" value="Makes&amp;nbsp; Api Calls Using" style="text;html=1;strokeColor=none;fillColor=none;align=center;verticalAlign=middle;whiteSpace=wrap;rounded=0;" vertex="1" parent="WrBATwZzKK5_DxGyc8Bm-74">
          <mxGeometry x="638.75" y="370" width="60" height="30" as="geometry" />
        </mxCell>
        <mxCell id="WrBATwZzKK5_DxGyc8Bm-108" value="Writes and Reads to" style="text;html=1;strokeColor=none;fillColor=none;align=center;verticalAlign=middle;whiteSpace=wrap;rounded=0;" vertex="1" parent="WrBATwZzKK5_DxGyc8Bm-74">
          <mxGeometry x="450" y="445" width="60" height="30" as="geometry" />
        </mxCell>
        <mxCell id="WrBATwZzKK5_DxGyc8Bm-109" value="Writes and Reads to" style="text;html=1;strokeColor=none;fillColor=none;align=center;verticalAlign=middle;whiteSpace=wrap;rounded=0;" vertex="1" parent="WrBATwZzKK5_DxGyc8Bm-74">
          <mxGeometry x="563.25" y="570" width="60" height="30" as="geometry" />
        </mxCell>
        <mxCell id="WrBATwZzKK5_DxGyc8Bm-111" value="Sends emails using" style="text;html=1;strokeColor=none;fillColor=none;align=center;verticalAlign=middle;whiteSpace=wrap;rounded=0;" vertex="1" parent="WrBATwZzKK5_DxGyc8Bm-74">
          <mxGeometry x="840" y="510" width="60" height="30" as="geometry" />
        </mxCell>
        <mxCell id="WrBATwZzKK5_DxGyc8Bm-112" value="Sends emails to" style="text;html=1;strokeColor=none;fillColor=none;align=center;verticalAlign=middle;whiteSpace=wrap;rounded=0;" vertex="1" parent="WrBATwZzKK5_DxGyc8Bm-74">
          <mxGeometry x="1118.25" y="350" width="60" height="30" as="geometry" />
        </mxCell>
        <mxCell id="WrBATwZzKK5_DxGyc8Bm-113" value="makes payment to" style="text;html=1;strokeColor=none;fillColor=none;align=center;verticalAlign=middle;whiteSpace=wrap;rounded=0;" vertex="1" parent="WrBATwZzKK5_DxGyc8Bm-74">
          <mxGeometry x="820" y="204" width="60" height="30" as="geometry" />
        </mxCell>
        <mxCell id="WrBATwZzKK5_DxGyc8Bm-115" value="" style="swimlane;startSize=0;" vertex="1" parent="WrBATwZzKK5_DxGyc8Bm-74">
          <mxGeometry x="180" y="340" width="770" height="510" as="geometry" />
        </mxCell>
        <mxCell id="WrBATwZzKK5_DxGyc8Bm-131" style="edgeStyle=orthogonalEdgeStyle;rounded=0;orthogonalLoop=1;jettySize=auto;html=1;entryX=0.574;entryY=0;entryDx=0;entryDy=0;entryPerimeter=0;dashed=1;" edge="1" parent="1" source="WrBATwZzKK5_DxGyc8Bm-118" target="WrBATwZzKK5_DxGyc8Bm-121">
          <mxGeometry relative="1" as="geometry" />
        </mxCell>
        <mxCell id="WrBATwZzKK5_DxGyc8Bm-118" value="Authentication" style="rounded=0;whiteSpace=wrap;html=1;fillColor=#66B2FF;movable=1;resizable=1;rotatable=1;deletable=1;editable=1;locked=0;connectable=1;" vertex="1" parent="1">
          <mxGeometry x="2840" y="330" width="135.5" height="70" as="geometry" />
        </mxCell>
        <mxCell id="WrBATwZzKK5_DxGyc8Bm-133" style="edgeStyle=orthogonalEdgeStyle;rounded=0;orthogonalLoop=1;jettySize=auto;html=1;dashed=1;" edge="1" parent="1" source="WrBATwZzKK5_DxGyc8Bm-121" target="WrBATwZzKK5_DxGyc8Bm-127">
          <mxGeometry relative="1" as="geometry" />
        </mxCell>
        <mxCell id="WrBATwZzKK5_DxGyc8Bm-134" style="edgeStyle=orthogonalEdgeStyle;rounded=0;orthogonalLoop=1;jettySize=auto;html=1;dashed=1;" edge="1" parent="1" source="WrBATwZzKK5_DxGyc8Bm-121" target="WrBATwZzKK5_DxGyc8Bm-128">
          <mxGeometry relative="1" as="geometry" />
        </mxCell>
        <mxCell id="WrBATwZzKK5_DxGyc8Bm-137" style="edgeStyle=orthogonalEdgeStyle;rounded=0;orthogonalLoop=1;jettySize=auto;html=1;entryX=0;entryY=0.25;entryDx=0;entryDy=0;dashed=1;" edge="1" parent="1" source="WrBATwZzKK5_DxGyc8Bm-121" target="WrBATwZzKK5_DxGyc8Bm-123">
          <mxGeometry relative="1" as="geometry">
            <Array as="points">
              <mxPoint x="3270" y="520" />
            </Array>
          </mxGeometry>
        </mxCell>
        <mxCell id="WrBATwZzKK5_DxGyc8Bm-121" value="Business controller" style="rounded=0;whiteSpace=wrap;html=1;fillColor=#66B2FF;movable=1;resizable=1;rotatable=1;deletable=1;editable=1;locked=0;connectable=1;" vertex="1" parent="1">
          <mxGeometry x="2830" y="490" width="135.5" height="60" as="geometry" />
        </mxCell>
        <mxCell id="WrBATwZzKK5_DxGyc8Bm-140" style="edgeStyle=orthogonalEdgeStyle;rounded=0;orthogonalLoop=1;jettySize=auto;html=1;entryX=1;entryY=0.5;entryDx=0;entryDy=0;dashed=1;" edge="1" parent="1" source="WrBATwZzKK5_DxGyc8Bm-122" target="WrBATwZzKK5_DxGyc8Bm-138">
          <mxGeometry relative="1" as="geometry">
            <Array as="points">
              <mxPoint x="3330" y="835" />
            </Array>
          </mxGeometry>
        </mxCell>
        <mxCell id="WrBATwZzKK5_DxGyc8Bm-122" value="Customer controller&amp;nbsp;" style="rounded=0;whiteSpace=wrap;html=1;fillColor=#66B2FF;movable=1;resizable=1;rotatable=1;deletable=1;editable=1;locked=0;connectable=1;" vertex="1" parent="1">
          <mxGeometry x="3270" y="640" width="135.5" height="70" as="geometry" />
        </mxCell>
        <mxCell id="WrBATwZzKK5_DxGyc8Bm-132" style="edgeStyle=orthogonalEdgeStyle;rounded=0;orthogonalLoop=1;jettySize=auto;html=1;entryX=0.5;entryY=0;entryDx=0;entryDy=0;dashed=1;" edge="1" parent="1" target="WrBATwZzKK5_DxGyc8Bm-122">
          <mxGeometry relative="1" as="geometry">
            <mxPoint x="3338" y="570" as="sourcePoint" />
          </mxGeometry>
        </mxCell>
        <mxCell id="WrBATwZzKK5_DxGyc8Bm-123" value="Subscription controller" style="rounded=0;whiteSpace=wrap;html=1;fillColor=#66B2FF;movable=1;resizable=1;rotatable=1;deletable=1;editable=1;locked=0;connectable=1;" vertex="1" parent="1">
          <mxGeometry x="3270" y="500" width="135.5" height="70" as="geometry" />
        </mxCell>
        <mxCell id="WrBATwZzKK5_DxGyc8Bm-130" style="edgeStyle=orthogonalEdgeStyle;rounded=0;orthogonalLoop=1;jettySize=auto;html=1;entryX=0.608;entryY=0.013;entryDx=0;entryDy=0;entryPerimeter=0;dashed=1;" edge="1" parent="1" source="WrBATwZzKK5_DxGyc8Bm-124" target="WrBATwZzKK5_DxGyc8Bm-123">
          <mxGeometry relative="1" as="geometry" />
        </mxCell>
        <mxCell id="WrBATwZzKK5_DxGyc8Bm-124" value="Invoice controller" style="rounded=0;whiteSpace=wrap;html=1;fillColor=#66B2FF;movable=1;resizable=1;rotatable=1;deletable=1;editable=1;locked=0;connectable=1;" vertex="1" parent="1">
          <mxGeometry x="3405.5" y="360" width="135.5" height="70" as="geometry" />
        </mxCell>
        <mxCell id="WrBATwZzKK5_DxGyc8Bm-135" style="edgeStyle=orthogonalEdgeStyle;rounded=0;orthogonalLoop=1;jettySize=auto;html=1;entryX=0.607;entryY=0;entryDx=0;entryDy=0;entryPerimeter=0;dashed=1;" edge="1" parent="1" source="WrBATwZzKK5_DxGyc8Bm-125" target="WrBATwZzKK5_DxGyc8Bm-124">
          <mxGeometry relative="1" as="geometry" />
        </mxCell>
        <mxCell id="WrBATwZzKK5_DxGyc8Bm-136" style="edgeStyle=orthogonalEdgeStyle;rounded=0;orthogonalLoop=1;jettySize=auto;html=1;entryX=1;entryY=0.75;entryDx=0;entryDy=0;dashed=1;" edge="1" parent="1" source="WrBATwZzKK5_DxGyc8Bm-125" target="WrBATwZzKK5_DxGyc8Bm-123">
          <mxGeometry relative="1" as="geometry">
            <Array as="points">
              <mxPoint x="3620" y="275" />
              <mxPoint x="3620" y="550" />
              <mxPoint x="3426" y="550" />
              <mxPoint x="3426" y="553" />
            </Array>
          </mxGeometry>
        </mxCell>
        <mxCell id="WrBATwZzKK5_DxGyc8Bm-125" value="Events controller" style="rounded=0;whiteSpace=wrap;html=1;fillColor=#66B2FF;movable=1;resizable=1;rotatable=1;deletable=1;editable=1;locked=0;connectable=1;" vertex="1" parent="1">
          <mxGeometry x="3420" y="240" width="135.5" height="70" as="geometry" />
        </mxCell>
        <mxCell id="WrBATwZzKK5_DxGyc8Bm-129" style="edgeStyle=orthogonalEdgeStyle;rounded=0;orthogonalLoop=1;jettySize=auto;html=1;dashed=1;" edge="1" parent="1" source="WrBATwZzKK5_DxGyc8Bm-126" target="WrBATwZzKK5_DxGyc8Bm-123">
          <mxGeometry relative="1" as="geometry" />
        </mxCell>
        <mxCell id="WrBATwZzKK5_DxGyc8Bm-126" value="Reports Controller" style="rounded=0;whiteSpace=wrap;html=1;fillColor=#66B2FF;movable=1;resizable=1;rotatable=1;deletable=1;editable=1;locked=0;connectable=1;" vertex="1" parent="1">
          <mxGeometry x="3185.5" y="370" width="135.5" height="70" as="geometry" />
        </mxCell>
        <mxCell id="WrBATwZzKK5_DxGyc8Bm-127" value="Product controller" style="rounded=0;whiteSpace=wrap;html=1;fillColor=#66B2FF;movable=1;resizable=1;rotatable=1;deletable=1;editable=1;locked=0;connectable=1;" vertex="1" parent="1">
          <mxGeometry x="2900" y="650" width="135.5" height="70" as="geometry" />
        </mxCell>
        <mxCell id="WrBATwZzKK5_DxGyc8Bm-128" value="Payment Controller" style="rounded=0;whiteSpace=wrap;html=1;fillColor=#66B2FF;movable=1;resizable=1;rotatable=1;deletable=1;editable=1;locked=0;connectable=1;" vertex="1" parent="1">
          <mxGeometry x="2694.5" y="650" width="135.5" height="70" as="geometry" />
        </mxCell>
        <mxCell id="WrBATwZzKK5_DxGyc8Bm-166" style="edgeStyle=orthogonalEdgeStyle;rounded=0;orthogonalLoop=1;jettySize=auto;html=1;dashed=1;entryX=0.415;entryY=-0.049;entryDx=0;entryDy=0;entryPerimeter=0;" edge="1" parent="1" source="WrBATwZzKK5_DxGyc8Bm-138" target="WrBATwZzKK5_DxGyc8Bm-165">
          <mxGeometry relative="1" as="geometry">
            <mxPoint x="3147.75" y="980" as="targetPoint" />
          </mxGeometry>
        </mxCell>
        <mxCell id="WrBATwZzKK5_DxGyc8Bm-138" value="Email&amp;nbsp; component&amp;nbsp;" style="rounded=0;whiteSpace=wrap;html=1;fillColor=#66B2FF;movable=1;resizable=1;rotatable=1;deletable=1;editable=1;locked=0;connectable=1;" vertex="1" parent="1">
          <mxGeometry x="3080" y="800" width="135.5" height="70" as="geometry" />
        </mxCell>
        <mxCell id="WrBATwZzKK5_DxGyc8Bm-142" value="uses" style="text;html=1;strokeColor=none;fillColor=none;align=center;verticalAlign=middle;whiteSpace=wrap;rounded=0;" vertex="1" parent="1">
          <mxGeometry x="2840" y="430" width="60" height="30" as="geometry" />
        </mxCell>
        <mxCell id="WrBATwZzKK5_DxGyc8Bm-143" value="uses" style="text;html=1;strokeColor=none;fillColor=none;align=center;verticalAlign=middle;whiteSpace=wrap;rounded=0;" vertex="1" parent="1">
          <mxGeometry x="2820" y="560" width="60" height="30" as="geometry" />
        </mxCell>
        <mxCell id="WrBATwZzKK5_DxGyc8Bm-144" value="uses" style="text;html=1;strokeColor=none;fillColor=none;align=center;verticalAlign=middle;whiteSpace=wrap;rounded=0;" vertex="1" parent="1">
          <mxGeometry x="3100" y="520" width="60" height="30" as="geometry" />
        </mxCell>
        <mxCell id="WrBATwZzKK5_DxGyc8Bm-145" value="uses" style="text;html=1;strokeColor=none;fillColor=none;align=center;verticalAlign=middle;whiteSpace=wrap;rounded=0;" vertex="1" parent="1">
          <mxGeometry x="3430" y="330" width="60" height="30" as="geometry" />
        </mxCell>
        <mxCell id="WrBATwZzKK5_DxGyc8Bm-146" value="uses" style="text;html=1;strokeColor=none;fillColor=none;align=center;verticalAlign=middle;whiteSpace=wrap;rounded=0;" vertex="1" parent="1">
          <mxGeometry x="3185.5" y="450" width="60" height="40" as="geometry" />
        </mxCell>
        <mxCell id="WrBATwZzKK5_DxGyc8Bm-147" value="uses" style="text;html=1;strokeColor=none;fillColor=none;align=center;verticalAlign=middle;whiteSpace=wrap;rounded=0;" vertex="1" parent="1">
          <mxGeometry x="3476.5" y="430" width="64.5" height="40" as="geometry" />
        </mxCell>
        <mxCell id="WrBATwZzKK5_DxGyc8Bm-148" value="uses" style="text;html=1;strokeColor=none;fillColor=none;align=center;verticalAlign=middle;whiteSpace=wrap;rounded=0;" vertex="1" parent="1">
          <mxGeometry x="3620" y="395" width="64.5" height="40" as="geometry" />
        </mxCell>
        <mxCell id="WrBATwZzKK5_DxGyc8Bm-149" value="uses" style="text;html=1;strokeColor=none;fillColor=none;align=center;verticalAlign=middle;whiteSpace=wrap;rounded=0;" vertex="1" parent="1">
          <mxGeometry x="3355.5" y="590" width="64.5" height="40" as="geometry" />
        </mxCell>
        <mxCell id="WrBATwZzKK5_DxGyc8Bm-150" value="uses" style="text;html=1;strokeColor=none;fillColor=none;align=center;verticalAlign=middle;whiteSpace=wrap;rounded=0;" vertex="1" parent="1">
          <mxGeometry x="3341" y="770" width="64.5" height="40" as="geometry" />
        </mxCell>
        <mxCell id="WrBATwZzKK5_DxGyc8Bm-157" style="edgeStyle=orthogonalEdgeStyle;rounded=0;orthogonalLoop=1;jettySize=auto;html=1;entryX=0.25;entryY=0;entryDx=0;entryDy=0;dashed=1;" edge="1" parent="1" source="WrBATwZzKK5_DxGyc8Bm-151" target="WrBATwZzKK5_DxGyc8Bm-118">
          <mxGeometry relative="1" as="geometry">
            <mxPoint x="2880" y="320" as="targetPoint" />
          </mxGeometry>
        </mxCell>
        <mxCell id="WrBATwZzKK5_DxGyc8Bm-151" value="User Client&lt;br&gt;(web / mobile)" style="rounded=0;whiteSpace=wrap;html=1;fillColor=#66B2FF;movable=1;resizable=1;rotatable=1;deletable=1;editable=1;locked=0;connectable=1;" vertex="1" parent="1">
          <mxGeometry x="2940" y="54" width="135.5" height="70" as="geometry" />
        </mxCell>
        <mxCell id="WrBATwZzKK5_DxGyc8Bm-158" style="edgeStyle=orthogonalEdgeStyle;rounded=0;orthogonalLoop=1;jettySize=auto;html=1;entryX=0.75;entryY=0;entryDx=0;entryDy=0;dashed=1;" edge="1" parent="1" source="WrBATwZzKK5_DxGyc8Bm-152" target="WrBATwZzKK5_DxGyc8Bm-118">
          <mxGeometry relative="1" as="geometry">
            <Array as="points">
              <mxPoint x="3250" y="270" />
              <mxPoint x="2942" y="270" />
            </Array>
          </mxGeometry>
        </mxCell>
        <mxCell id="WrBATwZzKK5_DxGyc8Bm-152" value="" style="group;movable=1;resizable=1;rotatable=1;deletable=1;editable=1;locked=0;connectable=1;" connectable="0" vertex="1" parent="1">
          <mxGeometry x="3230" y="50" width="78" height="120" as="geometry" />
        </mxCell>
        <mxCell id="WrBATwZzKK5_DxGyc8Bm-153" value="" style="group" connectable="0" vertex="1" parent="WrBATwZzKK5_DxGyc8Bm-152">
          <mxGeometry width="78" height="120" as="geometry" />
        </mxCell>
        <mxCell id="WrBATwZzKK5_DxGyc8Bm-154" value="" style="sketch=0;points=[[0,0,0],[0.25,0,0],[0.5,0,0],[0.75,0,0],[1,0,0],[0,1,0],[0.25,1,0],[0.5,1,0],[0.75,1,0],[1,1,0],[0,0.25,0],[0,0.5,0],[0,0.75,0],[1,0.25,0],[1,0.5,0],[1,0.75,0]];outlineConnect=0;fontColor=#232F3E;gradientColor=#009900;gradientDirection=north;fillColor=#00994D;strokeColor=#ffffff;dashed=0;verticalLabelPosition=bottom;verticalAlign=top;align=center;html=1;fontSize=12;fontStyle=0;aspect=fixed;shape=mxgraph.aws4.resourceIcon;resIcon=mxgraph.aws4.business_application;" vertex="1" parent="WrBATwZzKK5_DxGyc8Bm-153">
          <mxGeometry width="78" height="78" as="geometry" />
        </mxCell>
        <mxCell id="WrBATwZzKK5_DxGyc8Bm-155" value="Business" style="text;html=1;strokeColor=none;fillColor=none;align=center;verticalAlign=middle;whiteSpace=wrap;rounded=0;" vertex="1" parent="WrBATwZzKK5_DxGyc8Bm-153">
          <mxGeometry x="9" y="90" width="60" height="30" as="geometry" />
        </mxCell>
        <mxCell id="WrBATwZzKK5_DxGyc8Bm-156" style="edgeStyle=orthogonalEdgeStyle;rounded=0;orthogonalLoop=1;jettySize=auto;html=1;dashed=1;" edge="1" parent="1" source="WrBATwZzKK5_DxGyc8Bm-154" target="WrBATwZzKK5_DxGyc8Bm-151">
          <mxGeometry relative="1" as="geometry" />
        </mxCell>
        <mxCell id="WrBATwZzKK5_DxGyc8Bm-159" value="males request&amp;nbsp;" style="text;html=1;strokeColor=none;fillColor=none;align=center;verticalAlign=middle;whiteSpace=wrap;rounded=0;" vertex="1" parent="1">
          <mxGeometry x="3117.75" y="100" width="60" height="30" as="geometry" />
        </mxCell>
        <mxCell id="WrBATwZzKK5_DxGyc8Bm-160" value="males request&amp;nbsp;" style="text;html=1;strokeColor=none;fillColor=none;align=center;verticalAlign=middle;whiteSpace=wrap;rounded=0;" vertex="1" parent="1">
          <mxGeometry x="3261" y="230" width="60" height="30" as="geometry" />
        </mxCell>
        <mxCell id="WrBATwZzKK5_DxGyc8Bm-161" value="males request&amp;nbsp;" style="text;html=1;strokeColor=none;fillColor=none;align=center;verticalAlign=middle;whiteSpace=wrap;rounded=0;" vertex="1" parent="1">
          <mxGeometry x="2945" y="170" width="60" height="30" as="geometry" />
        </mxCell>
        <mxCell id="WrBATwZzKK5_DxGyc8Bm-168" value="" style="swimlane;startSize=0;" vertex="1" parent="1">
          <mxGeometry x="2550" y="-20" width="1150" height="1110" as="geometry" />
        </mxCell>
        <mxCell id="WrBATwZzKK5_DxGyc8Bm-169" value="" style="swimlane;startSize=0;" vertex="1" parent="WrBATwZzKK5_DxGyc8Bm-168">
          <mxGeometry x="130" y="200" width="990" height="760" as="geometry" />
        </mxCell>
        <mxCell id="WrBATwZzKK5_DxGyc8Bm-171" value="" style="endArrow=classic;html=1;rounded=0;entryX=0.925;entryY=-0.038;entryDx=0;entryDy=0;entryPerimeter=0;dashed=1;" edge="1" parent="WrBATwZzKK5_DxGyc8Bm-169" target="WrBATwZzKK5_DxGyc8Bm-164">
          <mxGeometry width="50" height="50" relative="1" as="geometry">
            <mxPoint x="20" y="760" as="sourcePoint" />
            <mxPoint x="-10" y="780" as="targetPoint" />
          </mxGeometry>
        </mxCell>
        <mxCell id="WrBATwZzKK5_DxGyc8Bm-172" value="" style="endArrow=classic;html=1;rounded=0;entryX=0.5;entryY=0;entryDx=0;entryDy=0;dashed=1;" edge="1" parent="WrBATwZzKK5_DxGyc8Bm-169" target="WrBATwZzKK5_DxGyc8Bm-162">
          <mxGeometry width="50" height="50" relative="1" as="geometry">
            <mxPoint x="110" y="760" as="sourcePoint" />
            <mxPoint x="160" y="710" as="targetPoint" />
          </mxGeometry>
        </mxCell>
        <mxCell id="WrBATwZzKK5_DxGyc8Bm-165" value="EMAIL SYSTEM" style="rounded=0;whiteSpace=wrap;html=1;fillColor=#666666;movable=1;resizable=1;rotatable=1;deletable=1;editable=1;locked=0;connectable=1;" vertex="1" parent="WrBATwZzKK5_DxGyc8Bm-168">
          <mxGeometry x="539" y="1010" width="141" height="80" as="geometry" />
        </mxCell>
        <mxCell id="WrBATwZzKK5_DxGyc8Bm-164" value="DATABASE&amp;nbsp;&lt;br&gt;(postgres)" style="rounded=0;whiteSpace=wrap;html=1;fillColor=#004C99;movable=1;resizable=1;rotatable=1;deletable=1;editable=1;locked=0;connectable=1;" vertex="1" parent="WrBATwZzKK5_DxGyc8Bm-168">
          <mxGeometry x="10" y="1010" width="141" height="70" as="geometry" />
        </mxCell>
        <mxCell id="WrBATwZzKK5_DxGyc8Bm-163" value="CACHE&lt;br&gt;(redis)" style="rounded=0;whiteSpace=wrap;html=1;fillColor=#004C99;movable=1;resizable=1;rotatable=1;deletable=1;editable=1;locked=0;connectable=1;" vertex="1" parent="WrBATwZzKK5_DxGyc8Bm-168">
          <mxGeometry x="350" y="1010" width="141" height="70" as="geometry" />
        </mxCell>
        <mxCell id="WrBATwZzKK5_DxGyc8Bm-162" value="BUCKET&amp;nbsp;&lt;br&gt;(s3)" style="rounded=0;whiteSpace=wrap;html=1;fillColor=#004C99;movable=1;resizable=1;rotatable=1;deletable=1;editable=1;locked=0;connectable=1;" vertex="1" parent="WrBATwZzKK5_DxGyc8Bm-168">
          <mxGeometry x="180" y="1010" width="141" height="70" as="geometry" />
        </mxCell>
        <mxCell id="WrBATwZzKK5_DxGyc8Bm-174" value="" style="endArrow=classic;html=1;rounded=0;exitX=0.291;exitY=1.002;exitDx=0;exitDy=0;exitPerimeter=0;entryX=0.5;entryY=0;entryDx=0;entryDy=0;dashed=1;" edge="1" parent="WrBATwZzKK5_DxGyc8Bm-168" source="WrBATwZzKK5_DxGyc8Bm-169" target="WrBATwZzKK5_DxGyc8Bm-163">
          <mxGeometry width="50" height="50" relative="1" as="geometry">
            <mxPoint x="500" y="820" as="sourcePoint" />
            <mxPoint x="420" y="1000" as="targetPoint" />
            <Array as="points">
              <mxPoint x="420" y="960" />
            </Array>
          </mxGeometry>
        </mxCell>
        <mxCell id="WrBATwZzKK5_DxGyc8Bm-167" value="uses" style="text;html=1;strokeColor=none;fillColor=none;align=center;verticalAlign=middle;whiteSpace=wrap;rounded=0;" vertex="1" parent="WrBATwZzKK5_DxGyc8Bm-168">
          <mxGeometry x="592.75" y="960" width="64.5" height="40" as="geometry" />
        </mxCell>
        <mxCell id="WrBATwZzKK5_DxGyc8Bm-176" value="Reads/ write" style="text;html=1;strokeColor=none;fillColor=none;align=center;verticalAlign=middle;whiteSpace=wrap;rounded=0;" vertex="1" parent="WrBATwZzKK5_DxGyc8Bm-168">
          <mxGeometry x="426.5" y="960" width="64.5" height="40" as="geometry" />
        </mxCell>
        <mxCell id="WrBATwZzKK5_DxGyc8Bm-177" value="Reads/ write" style="text;html=1;strokeColor=none;fillColor=none;align=center;verticalAlign=middle;whiteSpace=wrap;rounded=0;" vertex="1" parent="WrBATwZzKK5_DxGyc8Bm-168">
          <mxGeometry x="256.5" y="960" width="64.5" height="40" as="geometry" />
        </mxCell>
        <mxCell id="WrBATwZzKK5_DxGyc8Bm-178" value="Reads/ write" style="text;html=1;strokeColor=none;fillColor=none;align=center;verticalAlign=middle;whiteSpace=wrap;rounded=0;" vertex="1" parent="WrBATwZzKK5_DxGyc8Bm-168">
          <mxGeometry x="80" y="960" width="64.5" height="40" as="geometry" />
        </mxCell>
        <mxCell id="WrBATwZzKK5_DxGyc8Bm-181" value="Component" style="text;strokeColor=none;fillColor=none;html=1;fontSize=24;fontStyle=1;verticalAlign=middle;align=center;movable=1;resizable=1;rotatable=1;deletable=1;editable=1;locked=0;connectable=1;" vertex="1" parent="WrBATwZzKK5_DxGyc8Bm-168">
          <mxGeometry y="10" width="190" height="40" as="geometry" />
        </mxCell>
      </root>
    </mxGraphModel>
  </diagram>
</mxfile>
